<!-- Generated by IcoMoon.io -->
<svg version="1.1" xmlns="http://www.w3.org/2000/svg" width="32" height="32" viewBox="0 0 32 32">
<title>current_location</title>
<path d="M15.3 31.3v-3.8c-5.9-0.3-10.5-5-10.9-10.9h-3.7c-0.4 0.1-0.7-0.2-0.7-0.6s0.3-0.7 0.7-0.7h3.8c0.1-2.8 1.3-5.4 3.3-7.3 2-2 4.7-3.3 7.5-3.5v-3.8c0-0.4 0.3-0.7 0.7-0.7s0.7 0.3 0.7 0.7v3.8c5.9 0.3 10.6 5 10.9 10.9h3.8c0.4 0 0.7 0.3 0.7 0.7s-0.3 0.7-0.7 0.7c0 0 0 0 0 0h-3.8c-0.4 5.8-5 10.5-10.9 10.9v3.8c0 0.4-0.3 0.7-0.7 0.7-0.4-0.2-0.7-0.5-0.7-0.9v0zM8.8 23.3c1.7 1.7 4.1 2.8 6.5 2.9v-1.2c0-0.4 0.3-0.7 0.7-0.7s0.7 0.3 0.7 0.7v1.1c5.1-0.4 9.1-4.4 9.5-9.5h-1.2c-0.4 0-0.7-0.3-0.7-0.7s0.3-0.7 0.7-0.7c0 0 0 0 0 0h1.2c-0.3-5.1-4.4-9.2-9.5-9.5v1.3c0 0.4-0.3 0.7-0.7 0.7s-0.7-0.3-0.7-0.7v-1.2c-2.5 0.2-4.8 1.3-6.6 3.1-1.7 1.7-2.7 4-2.9 6.4h1.2c0.4 0 0.7 0.3 0.7 0.7s-0.3 0.7-0.7 0.7c0 0 0 0 0 0h-1.2c0.2 2.5 1.2 4.8 3 6.6v0zM15.9 21.1c-2.8 0-5.1-2.3-5-5.2 0-1.3 0.5-2.6 1.5-3.5 1-1 2.3-1.5 3.6-1.6h0.1c2.8 0 5 2.3 5 5 0 3-2.2 5.3-5.2 5.3v0zM13.3 13.4c-1.5 1.5-1.5 3.8 0 5.3 0.7 0.7 1.6 1.1 2.6 1.1h0.1c2.1 0 3.8-1.7 3.8-3.8 0-2-1.7-3.7-3.7-3.7h-0.1c-1-0.1-2 0.4-2.7 1.1z"></path>
</svg>
