<svg width="44" height="45" viewBox="0 0 44 45" fill="none" xmlns="http://www.w3.org/2000/svg">
<path d="M21.875 0.432617C18.8558 0.432617 16.0217 1.01652 13.3728 2.18433C10.7239 3.32365 8.40963 4.8831 6.43005 6.86267C4.45048 8.84224 2.87679 11.1707 1.70898 13.8481C0.569661 16.4971 0 19.3169 0 22.3076C0 25.3268 0.569661 28.1609 1.70898 30.8098C2.87679 33.4587 4.45048 35.7801 6.43005 37.7739C8.40963 39.7677 10.7239 41.3343 13.3728 42.4736C16.0217 43.613 18.8558 44.1826 21.875 44.1826C24.8942 44.1826 27.7283 43.613 30.3772 42.4736C33.0261 41.3343 35.3404 39.7677 37.3199 37.7739C39.2995 35.7801 40.8732 33.4587 42.041 30.8098C43.1803 28.1609 43.75 25.3268 43.75 22.3076C43.75 19.3169 43.1803 16.4971 42.041 13.8481C40.8732 11.1707 39.2995 8.84224 37.3199 6.86267C35.3404 4.8831 33.0261 3.32365 30.3772 2.18433C27.7283 1.01652 24.8942 0.432617 21.875 0.432617ZM26.6174 19.7869V23.0339H22.9858V34.356H18.9697V23.0339H16.7908V19.7869H18.9697V17.5652C18.9697 17.024 18.9982 16.433 19.0552 15.7921C19.1121 15.1512 19.3258 14.6599 19.696 14.3181C20.0663 13.7485 20.5363 13.2998 21.106 12.9723C21.6756 12.6447 22.4162 12.481 23.3276 12.481C24.7803 12.481 25.8128 12.5379 26.4252 12.6519C27.0376 12.7658 27.3438 12.8228 27.3438 12.8228L26.6174 16.4971C26.6174 16.4971 26.4038 16.433 25.9766 16.3048C25.5493 16.1766 25.1506 16.1125 24.7803 16.1125C24.41 16.1125 24.0184 16.2051 23.6053 16.3903C23.1923 16.5754 22.9858 16.8531 22.9858 17.2234V19.7869H26.6174Z" fill="#3B5998"/>
</svg>
