<svg width="44" height="44" viewBox="0 0 44 44" fill="none" xmlns="http://www.w3.org/2000/svg">
<path d="M21.875 0.0126953C18.8558 0.0126953 16.0217 0.5966 13.3728 1.7644C10.7239 2.90373 8.40963 4.46318 6.43005 6.44275C4.45048 8.42232 2.87679 10.7508 1.70898 13.4282C0.569661 16.0771 0 18.897 0 21.8877C0 24.9069 0.569661 27.741 1.70898 30.3899C2.87679 33.0388 4.45048 35.3602 6.43005 37.354C8.40963 39.3478 10.7239 40.9144 13.3728 42.0537C16.0217 43.193 18.8558 43.7627 21.875 43.7627C24.8942 43.7627 27.7283 43.193 30.3772 42.0537C33.0261 40.9144 35.3404 39.3478 37.3199 37.354C39.2995 35.3602 40.8732 33.0388 42.041 30.3899C43.1803 27.741 43.75 24.9069 43.75 21.8877C43.75 18.897 43.1803 16.0771 42.041 13.4282C40.8732 10.7508 39.2995 8.42232 37.3199 6.44275C35.3404 4.46318 33.0261 2.90373 30.3772 1.7644C27.7283 0.5966 24.8942 0.0126953 21.875 0.0126953ZM33.4534 27.0574C33.4534 28.9088 32.7911 30.4896 31.4667 31.7998C30.1422 33.11 28.5543 33.7651 26.7029 33.7651H17.0471C15.1957 33.7651 13.6078 33.11 12.2833 31.7998C10.9589 30.4896 10.2966 28.9088 10.2966 27.0574V16.7607C10.2966 14.9093 10.9589 13.3214 12.2833 11.9969C13.6078 10.6725 15.1957 10.0103 17.0471 10.0103H26.7029C28.5543 10.0103 30.1422 10.6725 31.4667 11.9969C32.7911 13.3214 33.4534 14.9093 33.4534 16.7607V27.0574ZM26.7029 11.8047H17.0471C16.392 11.8047 15.7583 11.9257 15.1459 12.1678C14.5335 12.41 13.9994 12.7731 13.5437 13.2573C13.088 13.7131 12.7319 14.2471 12.4756 14.8595C12.2192 15.4719 12.0911 16.1056 12.0911 16.7607V27.0574C12.0911 27.7125 12.2192 28.3391 12.4756 28.9373C12.7319 29.5354 13.088 30.0766 13.5437 30.5608C13.9994 31.0165 14.5335 31.3726 15.1459 31.6289C15.7583 31.8853 16.392 32.0134 17.0471 32.0134H26.7029C27.358 32.0134 27.9846 31.8853 28.5828 31.6289C29.1809 31.3726 29.7221 31.0165 30.2063 30.5608C30.662 30.0766 31.0181 29.5354 31.2744 28.9373C31.5308 28.3391 31.6589 27.7125 31.6589 27.0574V16.7607C31.6589 16.1056 31.5308 15.4719 31.2744 14.8595C31.0181 14.2471 30.662 13.7131 30.2063 13.2573C29.7221 12.7731 29.1809 12.41 28.5828 12.1678C27.9846 11.9257 27.358 11.8047 26.7029 11.8047ZM21.9177 28.1682C20.1518 28.1682 18.6493 27.5487 17.4103 26.3097C16.1713 25.0707 15.5518 23.5682 15.5518 21.8022C15.5518 20.0363 16.1713 18.5338 17.4103 17.2948C18.6493 16.0558 20.1518 15.4363 21.9177 15.4363C23.6837 15.4363 25.1862 16.0558 26.4252 17.2948C27.6642 18.5338 28.2837 20.0363 28.2837 21.8022C28.2837 23.5682 27.6642 25.0707 26.4252 26.3097C25.1862 27.5487 23.6837 28.1682 21.9177 28.1682ZM28.3691 16.8462C27.9704 16.8462 27.6215 16.6967 27.3224 16.3976C27.0233 16.0985 26.8738 15.7496 26.8738 15.3508C26.8738 14.9236 27.0233 14.5604 27.3224 14.2614C27.6215 13.9623 27.9704 13.8127 28.3691 13.8127C28.7964 13.8127 29.1595 13.9623 29.4586 14.2614C29.7577 14.5604 29.9072 14.9236 29.9072 15.3508C29.9072 15.7496 29.7577 16.0985 29.4586 16.3976C29.1595 16.6967 28.7964 16.8462 28.3691 16.8462ZM26.062 21.8022C26.062 22.9701 25.6561 23.9598 24.8444 24.7716C24.0326 25.5834 23.0428 25.9893 21.875 25.9893C20.7357 25.9893 19.753 25.5834 18.927 24.7716C18.101 23.9598 17.688 22.9701 17.688 21.8022C17.688 20.6629 18.101 19.6874 18.927 18.8756C19.753 18.0638 20.7357 17.658 21.875 17.658C23.0428 17.658 24.0326 18.0638 24.8444 18.8756C25.6561 19.6874 26.062 20.6629 26.062 21.8022Z" fill="#262626"/>
</svg>
