<svg width="44" height="45" viewBox="0 0 44 45" fill="none" xmlns="http://www.w3.org/2000/svg">
<path d="M21.875 0.591797C18.8558 0.591797 16.0217 1.1757 13.3728 2.34351C10.7239 3.48283 8.40963 5.04228 6.43005 7.02185C4.45048 9.00142 2.87679 11.3299 1.70898 14.0073C0.569661 16.6562 0 19.4761 0 22.4668C0 25.486 0.569661 28.3201 1.70898 30.969C2.87679 33.6179 4.45048 35.9393 6.43005 37.9331C8.40963 39.9269 10.7239 41.4935 13.3728 42.6328C16.0217 43.7721 18.8558 44.3418 21.875 44.3418C24.8942 44.3418 27.7283 43.7721 30.3772 42.6328C33.0261 41.4935 35.3404 39.9269 37.3199 37.9331C39.2995 35.9393 40.8732 33.6179 42.041 30.969C43.1803 28.3201 43.75 25.486 43.75 22.4668C43.75 19.4761 43.1803 16.6562 42.041 14.0073C40.8732 11.3299 39.2995 9.00142 37.3199 7.02185C35.3404 5.04228 33.0261 3.48283 30.3772 2.34351C27.7283 1.1757 24.8942 0.591797 21.875 0.591797ZM15.6799 33.0625H11.6638V19.2197H16.0217V33.0625H15.6799ZM13.501 17.7244C12.7604 17.7244 12.148 17.4823 11.6638 16.998C11.1796 16.5138 10.9375 15.9157 10.9375 15.2036C10.9375 14.4631 11.1796 13.9076 11.6638 13.5374C12.148 13.1671 12.7604 12.9819 13.501 12.9819C14.2131 12.9819 14.8112 13.2098 15.2954 13.6655C15.7796 14.1213 16.0217 14.634 16.0217 15.2036C16.0217 15.9157 15.7796 16.5138 15.2954 16.998C14.8112 17.4823 14.2131 17.7244 13.501 17.7244ZM32.8125 33.0625H28.0701V25.7566C28.0701 24.8451 27.8707 24.069 27.4719 23.4281C27.0732 22.7872 26.4181 22.4668 25.5066 22.4668C24.9654 22.4668 24.5168 22.6377 24.1608 22.9795C23.8047 23.3213 23.527 23.7628 23.3276 24.304C23.3276 24.4749 23.3276 24.6529 23.3276 24.838C23.3276 25.0232 23.3276 25.2154 23.3276 25.4148V32.678H18.2434C18.2434 32.678 18.2434 32.0371 18.2434 30.7554C18.2434 29.4451 18.2434 27.9783 18.2434 26.3547C18.2434 24.7312 18.2434 23.2074 18.2434 21.7832C18.2434 20.3306 18.2434 19.4761 18.2434 19.2197H22.9858V21.3987C23.1567 20.8575 23.6053 20.359 24.3317 19.9033C25.058 19.4476 26.062 19.2197 27.3438 19.2197C28.7964 19.2197 30.071 19.7039 31.1676 20.6724C32.2642 21.6408 32.8125 23.2216 32.8125 25.4148V33.0625Z" fill="#0A66C2"/>
</svg>
