<svg width="44" height="45" viewBox="0 0 44 45" fill="none" xmlns="http://www.w3.org/2000/svg">
<path d="M21.875 0.80249C18.8558 0.80249 16.0217 1.38639 13.3728 2.5542C10.6954 3.69352 8.3669 5.25297 6.38733 7.23254C4.40776 9.21212 2.84831 11.5264 1.70898 14.1753C0.569661 16.8242 0 19.6583 0 22.6775C0 25.0131 0.341797 27.2348 1.02539 29.3425C1.70898 31.4503 2.66317 33.3871 3.88794 35.1531C5.11271 36.919 6.57959 38.4856 8.28857 39.8528C9.99756 41.1915 11.8774 42.2596 13.9282 43.0571C13.8143 42.2026 13.7431 41.1772 13.7146 39.981C13.6861 38.7847 13.7716 37.7166 13.9709 36.7766C14.0849 36.3494 14.2843 35.5518 14.5691 34.384C14.8539 33.1877 15.1388 31.963 15.4236 30.7097C15.7084 29.4565 15.9648 28.3456 16.1926 27.3772C16.4205 26.4088 16.5344 25.9246 16.5344 25.9246C16.5344 25.9246 16.4276 25.6255 16.214 25.0273C16.0004 24.4292 15.8936 23.6459 15.8936 22.6775C15.8936 21.1394 16.2781 19.8719 17.0471 18.875C17.8162 17.8781 18.7561 17.3796 19.8669 17.3796C20.8069 17.3796 21.5047 17.6787 21.9604 18.2769C22.4162 18.875 22.644 19.6013 22.644 20.4558C22.644 21.3673 22.4162 22.4781 21.9604 23.7883C21.5047 25.0986 21.1202 26.4088 20.8069 27.719C20.5505 28.8014 20.757 29.7271 21.4264 30.4961C22.0957 31.2651 22.9716 31.6497 24.054 31.6497C25.0224 31.6497 25.9196 31.4076 26.7456 30.9233C27.6001 30.4391 28.3335 29.7555 28.9459 28.8726C29.5583 27.9896 30.0354 26.9357 30.3772 25.7109C30.7475 24.4862 30.9326 23.1332 30.9326 21.6521C30.9326 20.3419 30.7048 19.1456 30.249 18.0632C29.7933 16.9524 29.1667 16.0053 28.3691 15.222C27.5716 14.4388 26.6032 13.8335 25.4639 13.4062C24.353 12.979 23.1283 12.7654 21.7896 12.7654C20.223 12.7654 18.8273 13.036 17.6025 13.5771C16.3778 14.0898 15.3453 14.7948 14.505 15.692C13.6648 16.5892 13.0168 17.6075 12.561 18.7468C12.1338 19.8861 11.9202 21.054 11.9202 22.2502C11.9202 23.1902 12.0768 24.123 12.3901 25.0487C12.7035 25.9744 13.088 26.7078 13.5437 27.249C13.6292 27.363 13.679 27.4626 13.6932 27.5481C13.7075 27.6335 13.7004 27.7332 13.6719 27.8472C13.5864 28.2174 13.4725 28.6874 13.3301 29.2571C13.1877 29.8267 13.1022 30.197 13.0737 30.3679C13.0168 30.5673 12.9313 30.6884 12.8174 30.7311C12.7035 30.7738 12.5468 30.7382 12.3474 30.6243C10.9802 29.9976 9.89787 28.837 9.10034 27.1422C8.30282 25.4475 7.90405 23.7883 7.90405 22.1648C7.90405 20.4558 8.21737 18.8038 8.84399 17.2087C9.44214 15.6137 10.3536 14.2038 11.5784 12.979C12.8031 11.7542 14.3127 10.7716 16.1072 10.031C17.9016 9.31893 19.9809 8.96289 22.345 8.96289C24.2533 8.96289 26.0193 9.2762 27.6428 9.90283C29.2948 10.5579 30.7261 11.448 31.9366 12.5731C33.1472 13.6982 34.0942 15.0298 34.7778 16.5679C35.4614 18.106 35.8032 19.7722 35.8032 21.5667C35.8032 23.475 35.5326 25.2552 34.9915 26.9072C34.4218 28.5592 33.6314 29.9976 32.6202 31.2224C31.6091 32.4472 30.4057 33.4156 29.01 34.1277C27.6428 34.8398 26.1332 35.1958 24.4812 35.1958C23.3704 35.1958 22.345 34.9466 21.405 34.4481C20.4651 33.9497 19.81 33.3586 19.4397 32.675C19.4397 32.675 19.2474 33.4156 18.8629 34.8967C18.4784 36.3778 18.2292 37.3748 18.1152 37.8875C17.8589 38.8274 17.453 39.8314 16.8976 40.8995C16.3422 41.9677 15.8366 42.872 15.3809 43.6125C16.4062 43.9259 17.4601 44.168 18.5425 44.3389C19.6248 44.5098 20.7357 44.5952 21.875 44.5952C24.8942 44.5952 27.7283 44.0113 30.3772 42.8435C33.0261 41.7042 35.3404 40.1447 37.3199 38.1652C39.2995 36.1856 40.859 33.8713 41.9983 31.2224C43.1661 28.5735 43.75 25.7394 43.75 22.7202C43.75 19.6725 43.1803 16.8242 42.041 14.1753C40.8732 11.5264 39.2995 9.21212 37.3199 7.23254C35.3404 5.25297 33.0261 3.69352 30.3772 2.5542C27.7283 1.38639 24.8942 0.80249 21.875 0.80249Z" fill="#E60023"/>
</svg>
