<svg width="44" height="44" viewBox="0 0 44 44" fill="none" xmlns="http://www.w3.org/2000/svg">
<path d="M21.875 0.222656C18.8558 0.222656 16.0217 0.806561 13.3728 1.97437C10.7239 3.11369 8.40963 4.67314 6.43005 6.65271C4.45048 8.63228 2.87679 10.9608 1.70898 13.6382C0.569661 16.2871 0 19.1069 0 22.0977C0 25.1169 0.569661 27.9509 1.70898 30.5999C2.87679 33.2488 4.45048 35.5701 6.43005 37.564C8.40963 39.5578 10.7239 41.1243 13.3728 42.2637C16.0217 43.403 18.8558 43.9727 21.875 43.9727C24.8942 43.9727 27.7283 43.403 30.3772 42.2637C33.0261 41.1243 35.3404 39.5578 37.3199 37.564C39.2995 35.5701 40.8732 33.2488 42.041 30.5999C43.1803 27.9509 43.75 25.1169 43.75 22.0977C43.75 19.1069 43.1803 16.2871 42.041 13.6382C40.8732 10.9608 39.2995 8.63228 37.3199 6.65271C35.3404 4.67314 33.0261 3.11369 30.3772 1.97437C27.7283 0.806561 24.8942 0.222656 21.875 0.222656ZM32.8125 27.2246C32.8125 29.0475 32.2072 30.1085 30.9967 30.4076C29.7862 30.7067 29.1809 30.8562 29.1809 30.8562H14.5691C12.7462 30.8562 11.6852 30.2509 11.3861 29.0404C11.087 27.8299 10.9375 27.2246 10.9375 27.2246V19.5769C10.9375 17.754 11.5428 16.6859 12.7533 16.3726C13.9638 16.0592 14.5691 15.9026 14.5691 15.9026H29.1809C31.0038 15.9026 32.0648 16.515 32.3639 17.7397C32.663 18.9645 32.8125 19.5769 32.8125 19.5769V27.2246ZM18.9697 27.5664L26.2329 23.5503L18.9697 19.1924V27.5664Z" fill="#CC181E"/>
</svg>
